<?xml version="1.0" encoding="UTF-8"?>
<!DOCTYPE svg PUBLIC "-//W3C//DTD SVG 1.1//EN" "http://www.w3.org/Graphics/SVG/1.1/DTD/svg11.dtd">
<svg version="1.2" width="210" height="79" viewBox="0 0 5580 2032" preserveAspectRatio="xMidYMid" fill-rule="evenodd" stroke-width="28.222" stroke-linejoin="round" xmlns="http://www.w3.org/2000/svg" xmlns:ooo="http://xml.openoffice.org/svg/export" xmlns:xlink="http://www.w3.org/1999/xlink" xmlns:presentation="http://sun.com/xmlns/staroffice/presentation" xmlns:smil="http://www.w3.org/2001/SMIL20/" xmlns:anim="urn:oasis:names:tc:opendocument:xmlns:animation:1.0" xml:space="preserve">
 <defs class="ClipPathGroup">
  <clipPath id="presentation_clip_path" clipPathUnits="userSpaceOnUse">
   <rect x="0" y="0" width="5580" height="2032"/>
  </clipPath>
  <clipPath id="presentation_clip_path_shrink" clipPathUnits="userSpaceOnUse">
   <rect x="5" y="2" width="5569" height="2028"/>
  </clipPath>
 </defs>
 <defs class="TextShapeIndex">
  <g ooo:slide="id1" ooo:id-list="id3 id4 id5"/>
 </defs>
 <defs class="EmbeddedBulletChars">
  <g id="bullet-char-template(57356)" transform="scale(0.00048828125,-0.00048828125)">
   <path d="M 580,1141 L 1163,571 580,0 -4,571 580,1141 Z"/>
  </g>
  <g id="bullet-char-template(57354)" transform="scale(0.00048828125,-0.00048828125)">
   <path d="M 8,1128 L 1137,1128 1137,0 8,0 8,1128 Z"/>
  </g>
  <g id="bullet-char-template(10146)" transform="scale(0.00048828125,-0.00048828125)">
   <path d="M 174,0 L 602,739 174,1481 1456,739 174,0 Z M 1358,739 L 309,1346 659,739 1358,739 Z"/>
  </g>
  <g id="bullet-char-template(10132)" transform="scale(0.00048828125,-0.00048828125)">
   <path d="M 2015,739 L 1276,0 717,0 1260,543 174,543 174,936 1260,936 717,1481 1274,1481 2015,739 Z"/>
  </g>
  <g id="bullet-char-template(10007)" transform="scale(0.00048828125,-0.00048828125)">
   <path d="M 0,-2 C -7,14 -16,27 -25,37 L 356,567 C 262,823 215,952 215,954 215,979 228,992 255,992 264,992 276,990 289,987 310,991 331,999 354,1012 L 381,999 492,748 772,1049 836,1024 860,1049 C 881,1039 901,1025 922,1006 886,937 835,863 770,784 769,783 710,716 594,584 L 774,223 C 774,196 753,168 711,139 L 727,119 C 717,90 699,76 672,76 641,76 570,178 457,381 L 164,-76 C 142,-110 111,-127 72,-127 30,-127 9,-110 8,-76 1,-67 -2,-52 -2,-32 -2,-23 -1,-13 0,-2 Z"/>
  </g>
  <g id="bullet-char-template(10004)" transform="scale(0.00048828125,-0.00048828125)">
   <path d="M 285,-33 C 182,-33 111,30 74,156 52,228 41,333 41,471 41,549 55,616 82,672 116,743 169,778 240,778 293,778 328,747 346,684 L 369,508 C 377,444 397,411 428,410 L 1163,1116 C 1174,1127 1196,1133 1229,1133 1271,1133 1292,1118 1292,1087 L 1292,965 C 1292,929 1282,901 1262,881 L 442,47 C 390,-6 338,-33 285,-33 Z"/>
  </g>
  <g id="bullet-char-template(9679)" transform="scale(0.00048828125,-0.00048828125)">
   <path d="M 813,0 C 632,0 489,54 383,161 276,268 223,411 223,592 223,773 276,916 383,1023 489,1130 632,1184 813,1184 992,1184 1136,1130 1245,1023 1353,916 1407,772 1407,592 1407,412 1353,268 1245,161 1136,54 992,0 813,0 Z"/>
  </g>
  <g id="bullet-char-template(8226)" transform="scale(0.00048828125,-0.00048828125)">
   <path d="M 346,457 C 273,457 209,483 155,535 101,586 74,649 74,723 74,796 101,859 155,911 209,963 273,989 346,989 419,989 480,963 531,910 582,859 608,796 608,723 608,648 583,586 532,535 482,483 420,457 346,457 Z"/>
  </g>
  <g id="bullet-char-template(8211)" transform="scale(0.00048828125,-0.00048828125)">
   <path d="M -4,459 L 1135,459 1135,606 -4,606 -4,459 Z"/>
  </g>
  <g id="bullet-char-template(61548)" transform="scale(0.00048828125,-0.00048828125)">
   <path d="M 173,740 C 173,903 231,1043 346,1159 462,1274 601,1332 765,1332 928,1332 1067,1274 1183,1159 1299,1043 1357,903 1357,740 1357,577 1299,437 1183,322 1067,206 928,148 765,148 601,148 462,206 346,322 231,437 173,577 173,740 Z"/>
  </g>
 </defs>
 <defs class="TextEmbeddedBitmaps"/>
 <g>
  <g id="id2" class="Master_Slide">
   <g id="bg-id2" class="Background"/>
   <g id="bo-id2" class="BackgroundObjects"/>
  </g>
 </g>
 <g class="SlideGroup">
  <g>
   <g id="container-id1">
    <g id="id1" class="Slide" clip-path="url(#presentation_clip_path)">
     <g class="Page">
      <g class="Group">
       <g class="com.sun.star.drawing.ClosedBezierShape">
        <g id="id3">
         <rect class="BoundingBox" stroke="none" fill="none" x="1903" y="673" width="3259" height="898"/>
         <path fill="rgb(0,158,224)" stroke="none" d="M 1903,673 L 2120,673 2252,1011 2297,1154 2303,1154 2347,1011 2480,673 2697,673 2697,1364 2555,1364 2555,851 2548,851 2483,1041 2365,1336 2234,1336 2116,1041 2051,851 2043,851 2043,1364 1903,1364 1903,673 Z M 1903,673 L 1903,673 Z M 2874,1369 C 2826,1369 2790,1357 2765,1331 2740,1306 2727,1271 2727,1225 2727,1174 2743,1136 2774,1109 2805,1084 2854,1069 2920,1064 L 3037,1055 3037,1050 C 3037,1033 3035,1019 3032,1008 3030,997 3024,988 3017,982 3009,975 2999,970 2985,967 2971,964 2953,963 2931,963 2908,963 2882,964 2853,968 2824,971 2796,975 2769,980 L 2759,871 C 2795,865 2829,860 2861,857 2894,854 2925,853 2955,853 3036,853 3096,867 3135,894 3173,922 3192,965 3192,1024 L 3192,1364 3065,1364 3051,1303 3042,1303 C 3017,1325 2990,1342 2962,1353 2933,1364 2904,1369 2874,1369 Z M 2874,1369 L 2874,1369 Z M 2940,1262 C 2957,1262 2974,1258 2991,1252 3009,1245 3024,1237 3037,1227 L 3037,1138 2967,1143 C 2936,1146 2915,1152 2903,1161 2890,1171 2884,1186 2884,1208 2884,1244 2903,1262 2940,1262 Z M 2940,1262 L 2940,1262 Z M 3453,1570 C 3418,1570 3382,1568 3345,1564 3308,1561 3276,1556 3251,1549 L 3260,1436 C 3282,1441 3307,1446 3336,1450 3365,1454 3394,1456 3424,1456 3447,1456 3469,1454 3490,1449 3510,1445 3528,1438 3545,1427 3560,1417 3572,1404 3581,1386 3589,1369 3594,1348 3594,1322 L 3594,1276 3586,1276 C 3570,1302 3549,1321 3522,1333 3495,1345 3465,1350 3430,1350 3359,1350 3306,1331 3270,1293 3234,1255 3216,1196 3216,1115 3216,1071 3223,1032 3236,999 3249,966 3268,939 3292,917 3316,895 3345,878 3380,867 3414,856 3453,850 3495,850 3510,850 3526,850 3543,851 3559,852 3576,854 3595,857 3615,860 3636,865 3659,870 3683,875 3710,882 3740,891 L 3740,1304 C 3740,1354 3733,1395 3717,1429 3702,1463 3681,1491 3655,1512 3629,1532 3599,1547 3564,1556 3529,1565 3492,1570 3453,1570 Z M 3453,1570 L 3453,1570 Z M 3476,1238 C 3510,1238 3538,1230 3556,1213 3575,1196 3584,1168 3584,1131 L 3584,968 C 3572,965 3558,963 3542,961 3526,960 3509,959 3492,959 3469,959 3451,961 3436,966 3421,970 3409,978 3399,989 3390,1000 3383,1015 3379,1033 3375,1052 3373,1075 3373,1103 3373,1129 3375,1151 3378,1168 3382,1185 3387,1199 3396,1209 3404,1219 3414,1227 3427,1231 3440,1236 3457,1238 3476,1238 Z M 3476,1238 L 3476,1238 Z M 3790,859 L 3921,859 3929,917 3936,917 C 3983,893 4023,876 4057,866 4091,855 4122,850 4151,850 4195,850 4230,862 4255,886 4280,911 4293,945 4293,990 L 4293,1364 4137,1364 4137,1042 C 4137,1017 4132,1000 4123,989 4113,978 4099,973 4079,973 4061,973 4041,976 4017,983 3993,989 3970,997 3946,1008 L 3946,1364 3790,1364 3790,859 Z M 3790,859 L 3790,859 Z M 4578,1373 C 4404,1373 4317,1287 4317,1115 4317,1028 4339,962 4383,918 4426,873 4491,851 4578,851 4726,851 4800,926 4800,1076 4800,1105 4797,1132 4792,1154 L 4472,1154 C 4474,1174 4478,1191 4483,1204 4488,1217 4495,1227 4504,1235 4513,1242 4525,1247 4540,1251 4555,1254 4572,1255 4593,1255 4606,1255 4621,1255 4637,1253 4653,1252 4669,1251 4685,1249 4701,1247 4717,1244 4733,1242 4748,1239 4763,1236 4776,1233 L 4780,1344 C 4751,1353 4718,1360 4682,1365 4647,1370 4612,1373 4578,1373 Z M 4578,1373 L 4578,1373 Z M 4571,960 C 4539,960 4515,969 4499,986 4484,1003 4474,1031 4471,1071 L 4663,1071 C 4662,1031 4654,1002 4640,985 4626,968 4603,960 4571,960 Z M 4571,960 L 4571,960 Z M 5050,1376 C 4992,1376 4948,1362 4919,1335 4889,1308 4874,1268 4874,1215 L 4874,990 4786,990 4786,859 4885,859 4908,714 5029,701 5029,859 5159,859 5159,990 5030,990 5030,1180 C 5030,1208 5036,1228 5047,1239 5057,1251 5076,1257 5102,1257 5120,1257 5139,1253 5161,1246 L 5161,1362 C 5147,1366 5129,1369 5110,1372 5090,1374 5070,1376 5050,1376 Z"/>
        </g>
       </g>
       <g class="com.sun.star.drawing.ClosedBezierShape">
        <g id="id4">
         <rect class="BoundingBox" stroke="none" fill="none" x="466" y="418" width="1196" height="1197"/>
         <path fill="rgb(0,158,224)" stroke="none" d="M 1063,419 C 1394,419 1661,686 1661,1016 1661,1347 1394,1614 1063,1614 733,1614 466,1347 466,1016 466,686 733,419 1063,419 Z"/>
        </g>
       </g>
       <g class="com.sun.star.drawing.ClosedBezierShape">
        <g id="id5">
         <rect class="BoundingBox" stroke="none" fill="none" x="739" y="650" width="648" height="730"/>
         <path fill="rgb(255,255,255)" stroke="none" d="M 1097,650 C 1260,667 1402,805 1384,969 L 1363,1170 1152,1133 1166,969 C 1170,924 1139,885 1097,871 L 1097,650 Z M 1097,650 L 1097,650 Z M 1356,1238 L 1341,1379 1135,1343 1147,1201 1356,1238 Z M 1356,1238 L 1356,1238 Z M 1028,871 C 987,885 955,924 959,969 L 973,1133 762,1170 741,969 C 724,805 865,667 1028,650 L 1028,871 Z M 1028,871 L 1028,871 Z M 979,1201 L 991,1343 785,1379 770,1238 979,1201 Z"/>
        </g>
       </g>
      </g>
     </g>
    </g>
   </g>
  </g>
 </g>
</svg>